<svg width="29" height="29" viewBox="0 0 29 29" fill="none" xmlns="http://www.w3.org/2000/svg">
<path d="M14.3346 2.83594C20.778 2.83594 26.0013 8.05928 26.0013 14.5026C26.0013 20.9459 20.778 26.1693 14.3346 26.1693C7.89131 26.1693 2.66797 20.9459 2.66797 14.5026C2.66797 8.05928 7.89131 2.83594 14.3346 2.83594ZM18.0909 10.9672L12.8763 16.1818L10.5784 13.8839C10.2366 13.5422 9.68263 13.5422 9.34092 13.8839C8.99921 14.2256 8.99921 14.7796 9.34092 15.1213L12.2576 18.038C12.5993 18.3797 13.1533 18.3797 13.495 18.038L19.3284 12.2047C19.6701 11.8629 19.6701 11.3089 19.3284 10.9672C18.9866 10.6255 18.4326 10.6255 18.0909 10.9672Z" fill="#4CAF50"/>
</svg>
