<svg width="29" height="28" viewBox="0 0 29 28" fill="none" xmlns="http://www.w3.org/2000/svg">
<path d="M14.666 2C21.2934 2 26.666 7.37258 26.666 14C26.666 20.6274 21.2934 26 14.666 26C8.0386 26 2.66602 20.6274 2.66602 14C2.66602 7.37258 8.0386 2 14.666 2ZM14.666 3.8C9.03271 3.8 4.46602 8.3667 4.46602 14C4.46602 19.6333 9.03271 24.2 14.666 24.2C20.2993 24.2 24.866 19.6333 24.866 14C24.866 8.3667 20.2993 3.8 14.666 3.8ZM13.166 15.7272L18.5296 10.3636C18.8811 10.0121 19.4509 10.0121 19.8024 10.3636C20.1219 10.6831 20.151 11.1831 19.8896 11.5355L19.8024 11.6364L13.8024 17.6364C13.4829 17.9559 12.9829 17.985 12.6306 17.7235L12.5296 17.6364L9.52962 14.6364C9.17815 14.2849 9.17815 13.7151 9.52962 13.3636C9.84914 13.0441 10.3491 13.015 10.7015 13.2765L10.8024 13.3636L13.166 15.7272L18.5296 10.3636L13.166 15.7272Z" fill="#2882D6"/>
</svg>
